<svg xmlns="http://www.w3.org/2000/svg" xmlns:xlink="http://www.w3.org/1999/xlink" width="1000" zoomAndPan="magnify" viewBox="0 0 750 374.999991" height="500" preserveAspectRatio="xMidYMid meet" version="1.0"><defs><g/></defs><g fill="#ffffff" fill-opacity="1"><g transform="translate(12.65689, 160.549472)"><g><path d="M 26.359375 -15.96875 L 26.359375 -142.78125 L 35.9375 -142.78125 L 35.9375 -22.359375 C 35.9375 -4.523438 32.210938 9.71875 24.765625 20.375 C 21.035156 25.832031 17.238281 30.390625 13.375 34.046875 C 9.519531 37.703125 4.796875 41.53125 -0.796875 45.53125 L -4.984375 39.34375 C 15.910156 24.03125 26.359375 5.59375 26.359375 -15.96875 Z M 26.359375 -15.96875 "/></g></g></g><g fill="#ffffff" fill-opacity="1"><g transform="translate(50.998056, 160.549472)"><g><path d="M 81.265625 2 C 62.765625 2 47.253906 -4.457031 34.734375 -17.375 C 22.222656 -30.289062 15.96875 -46.097656 15.96875 -64.796875 C 15.96875 -83.503906 22.222656 -99.3125 34.734375 -112.21875 C 47.253906 -125.132812 62.765625 -131.59375 81.265625 -131.59375 C 99.773438 -131.59375 115.285156 -125.132812 127.796875 -112.21875 C 140.316406 -99.3125 146.578125 -83.503906 146.578125 -64.796875 C 146.578125 -46.097656 140.316406 -30.289062 127.796875 -17.375 C 115.285156 -4.457031 99.773438 2 81.265625 2 Z M 81.375 -123.40625 C 65.332031 -123.40625 52.019531 -117.742188 41.4375 -106.421875 C 30.851562 -95.109375 25.5625 -81.234375 25.5625 -64.796875 C 25.5625 -48.359375 30.851562 -34.515625 41.4375 -23.265625 C 52.019531 -12.015625 65.332031 -6.390625 81.375 -6.390625 C 97.414062 -6.390625 110.691406 -12.015625 121.203125 -23.265625 C 131.722656 -34.515625 136.984375 -48.359375 136.984375 -64.796875 C 136.984375 -81.234375 131.722656 -95.109375 121.203125 -106.421875 C 110.691406 -117.742188 97.414062 -123.40625 81.375 -123.40625 Z M 81.375 -123.40625 "/></g></g></g><g fill="#ffffff" fill-opacity="1"><g transform="translate(189.58595, 160.549472)"><g><path d="M 30.359375 -44.921875 L 11.78125 0 L 2.390625 0 L 56.71875 -130.390625 L 62.109375 -130.390625 L 116.8125 0 L 106.640625 0 L 87.859375 -44.921875 Z M 58.90625 -115.625 C 56.90625 -109.632812 55.109375 -104.640625 53.515625 -100.640625 L 33.546875 -52.71875 L 84.671875 -52.71875 L 64.890625 -100.4375 C 61.835938 -107.894531 59.84375 -112.957031 58.90625 -115.625 Z M 58.90625 -115.625 "/></g></g></g><g fill="#ffffff" fill-opacity="1"><g transform="translate(284.840063, 160.549472)"><g><path d="M 81.265625 2 C 62.765625 2 47.253906 -4.457031 34.734375 -17.375 C 22.222656 -30.289062 15.96875 -46.097656 15.96875 -64.796875 C 15.96875 -83.503906 22.222656 -99.3125 34.734375 -112.21875 C 47.253906 -125.132812 62.765625 -131.59375 81.265625 -131.59375 C 99.773438 -131.59375 115.253906 -125.132812 127.703125 -112.21875 C 140.148438 -99.3125 146.375 -83.535156 146.375 -64.890625 C 146.375 -53.847656 144.039062 -43.597656 139.375 -34.140625 C 134.71875 -24.691406 128.332031 -16.90625 120.21875 -10.78125 C 151.894531 7.988281 176.253906 19.300781 193.296875 23.15625 C 202.085938 25.289062 210.539062 26.359375 218.65625 26.359375 C 226.78125 26.359375 235.535156 25.425781 244.921875 23.5625 C 254.304688 21.695312 260.992188 19.765625 264.984375 17.765625 L 267.1875 22.96875 C 262.125 25.363281 254.765625 27.722656 245.109375 30.046875 C 235.460938 32.378906 226.410156 33.546875 217.953125 33.546875 C 209.503906 33.546875 200.488281 32.445312 190.90625 30.25 C 181.320312 28.050781 171.335938 24.554688 160.953125 19.765625 C 150.566406 14.972656 142.546875 11.078125 136.890625 8.078125 C 131.234375 5.085938 123.078125 0.460938 112.421875 -5.796875 C 102.835938 -0.597656 92.453125 2 81.265625 2 Z M 81.171875 -123.40625 C 65.128906 -123.40625 51.847656 -117.742188 41.328125 -106.421875 C 30.816406 -95.109375 25.5625 -81.234375 25.5625 -64.796875 C 25.5625 -48.359375 30.816406 -34.515625 41.328125 -23.265625 C 51.847656 -12.015625 65.160156 -6.390625 81.265625 -6.390625 C 89.660156 -6.390625 97.25 -7.988281 104.03125 -11.1875 C 88.988281 -21.300781 77.273438 -26.359375 68.890625 -26.359375 C 64.097656 -26.359375 59.707031 -25.425781 55.71875 -23.5625 L 52.71875 -29.15625 C 57.238281 -32.082031 62.296875 -33.546875 67.890625 -33.546875 C 73.484375 -33.546875 78.941406 -32.546875 84.265625 -30.546875 C 89.585938 -28.554688 94.078125 -26.492188 97.734375 -24.359375 C 101.398438 -22.234375 106.164062 -19.238281 112.03125 -15.375 C 119.75 -20.5625 125.835938 -27.515625 130.296875 -36.234375 C 134.753906 -44.960938 136.984375 -54.515625 136.984375 -64.890625 C 136.984375 -81.265625 131.691406 -95.109375 121.109375 -106.421875 C 110.523438 -117.742188 97.210938 -123.40625 81.171875 -123.40625 Z M 81.171875 -123.40625 "/></g></g></g><g fill="#ffffff" fill-opacity="1"><g transform="translate(423.228217, 160.549472)"><g><path d="M 116.203125 -13.375 C 107.421875 -3.125 94.046875 2 76.078125 2 C 58.109375 2 44.726562 -3.125 35.9375 -13.375 C 27.15625 -23.625 22.765625 -37.800781 22.765625 -55.90625 L 22.765625 -129.59375 L 31.953125 -129.59375 L 31.953125 -55.90625 C 31.953125 -22.757812 46.660156 -6.1875 76.078125 -6.1875 C 105.503906 -6.1875 120.21875 -22.757812 120.21875 -55.90625 L 120.21875 -129.59375 L 129.390625 -129.59375 L 129.390625 -55.90625 C 129.390625 -37.800781 124.992188 -23.625 116.203125 -13.375 Z M 116.203125 -13.375 "/></g></g></g><g fill="#ffffff" fill-opacity="1"><g transform="translate(551.431971, 160.549472)"><g><path d="M 23.96875 0 L 23.96875 -129.59375 L 33.140625 -129.59375 L 33.140625 0 Z M 23.96875 0 "/></g></g></g><g fill="#ffffff" fill-opacity="1"><g transform="translate(584.581063, 160.549472)"><g><path d="M 23.96875 0 L 23.96875 -130.390625 L 28.359375 -130.390625 L 113.421875 -32.546875 C 116.484375 -29.085938 119.3125 -25.660156 121.90625 -22.265625 C 124.5 -18.867188 125.863281 -17.101562 126 -16.96875 C 125.738281 -20.164062 125.609375 -26.425781 125.609375 -35.75 L 125.609375 -129.59375 L 134.78125 -129.59375 L 134.78125 0.796875 L 130.390625 0.796875 L 43.734375 -98.640625 L 32.75 -112.03125 C 33.007812 -109.363281 33.140625 -103.101562 33.140625 -93.25 L 33.140625 0 Z M 23.96875 0 "/></g></g></g><g fill="#ffffff" fill-opacity="1"><g transform="translate(2.473297, 349.54946)"><g><path d="M 26.359375 0 L 26.359375 -142.171875 C 39.003906 -143.109375 49.585938 -143.578125 58.109375 -143.578125 C 71.691406 -143.578125 82.875 -140.082031 91.65625 -133.09375 C 100.4375 -126.101562 104.828125 -116.21875 104.828125 -103.4375 C 104.828125 -94.78125 102.296875 -86.722656 97.234375 -79.265625 C 92.179688 -71.816406 86.53125 -65.894531 80.28125 -61.5 C 85.195312 -54.707031 91.28125 -46.617188 98.53125 -37.234375 C 105.789062 -27.847656 110.488281 -21.957031 112.625 -19.5625 C 120.738281 -10.914062 129.925781 -5.992188 140.1875 -4.796875 L 139.984375 1.59375 C 131.859375 1.457031 125.265625 0.226562 120.203125 -2.09375 C 115.148438 -4.425781 110.328125 -7.988281 105.734375 -12.78125 C 101.140625 -17.570312 89.722656 -32.484375 71.484375 -57.515625 C 58.441406 -57.515625 46.59375 -57.910156 35.9375 -58.703125 L 35.9375 0 Z M 65.703125 -65.5 C 71.554688 -65.5 77.8125 -69.359375 84.46875 -77.078125 C 91.125 -84.796875 94.453125 -93.75 94.453125 -103.9375 C 94.453125 -114.125 91.023438 -121.84375 84.171875 -127.09375 C 77.316406 -132.351562 68.226562 -134.984375 56.90625 -134.984375 C 50.914062 -134.984375 43.925781 -134.71875 35.9375 -134.1875 L 35.9375 -66.5 C 46.59375 -65.832031 56.515625 -65.5 65.703125 -65.5 Z M 65.703125 -65.5 "/></g></g></g><g fill="#ffffff" fill-opacity="1"><g transform="translate(109.908775, 349.54946)"><g><path d="M 81.265625 2 C 62.765625 2 47.253906 -4.457031 34.734375 -17.375 C 22.222656 -30.289062 15.96875 -46.097656 15.96875 -64.796875 C 15.96875 -83.503906 22.222656 -99.3125 34.734375 -112.21875 C 47.253906 -125.132812 62.765625 -131.59375 81.265625 -131.59375 C 99.773438 -131.59375 115.285156 -125.132812 127.796875 -112.21875 C 140.316406 -99.3125 146.578125 -83.503906 146.578125 -64.796875 C 146.578125 -46.097656 140.316406 -30.289062 127.796875 -17.375 C 115.285156 -4.457031 99.773438 2 81.265625 2 Z M 81.375 -123.40625 C 65.332031 -123.40625 52.019531 -117.742188 41.4375 -106.421875 C 30.851562 -95.109375 25.5625 -81.234375 25.5625 -64.796875 C 25.5625 -48.359375 30.851562 -34.515625 41.4375 -23.265625 C 52.019531 -12.015625 65.332031 -6.390625 81.375 -6.390625 C 97.414062 -6.390625 110.691406 -12.015625 121.203125 -23.265625 C 131.722656 -34.515625 136.984375 -48.359375 136.984375 -64.796875 C 136.984375 -81.234375 131.722656 -95.109375 121.203125 -106.421875 C 110.691406 -117.742188 97.414062 -123.40625 81.375 -123.40625 Z M 81.375 -123.40625 "/></g></g></g><g fill="#ffffff" fill-opacity="1"><g transform="translate(248.496668, 349.54946)"><g><path d="M 65.5 -6.796875 C 82.539062 -6.796875 96.21875 -11.382812 106.53125 -20.5625 C 116.851562 -29.75 122.015625 -43.59375 122.015625 -62.09375 C 122.015625 -80.601562 116.1875 -95.316406 104.53125 -106.234375 C 92.882812 -117.148438 78.539062 -122.609375 61.5 -122.609375 C 49.382812 -122.609375 40.066406 -122.34375 33.546875 -121.8125 L 33.546875 -8.1875 C 41.535156 -7.257812 52.1875 -6.796875 65.5 -6.796875 Z M 61.5 -130.796875 C 81.46875 -130.796875 98.140625 -124.640625 111.515625 -112.328125 C 124.898438 -100.015625 131.59375 -83.273438 131.59375 -62.109375 C 131.59375 -40.941406 125.4375 -25.03125 113.125 -14.375 C 100.8125 -3.726562 84.9375 1.59375 65.5 1.59375 C 52.050781 1.59375 38.207031 0.925781 23.96875 -0.40625 L 23.96875 -129.59375 C 34.613281 -130.394531 47.125 -130.796875 61.5 -130.796875 Z M 61.5 -130.796875 "/></g></g></g><g fill="#ffffff" fill-opacity="1"><g transform="translate(372.107432, 349.54946)"><g><path d="M 30.359375 -44.921875 L 11.78125 0 L 2.390625 0 L 56.71875 -130.390625 L 62.109375 -130.390625 L 116.8125 0 L 106.640625 0 L 87.859375 -44.921875 Z M 58.90625 -115.625 C 56.90625 -109.632812 55.109375 -104.640625 53.515625 -100.640625 L 33.546875 -52.71875 L 84.671875 -52.71875 L 64.890625 -100.4375 C 61.835938 -107.894531 59.84375 -112.957031 58.90625 -115.625 Z M 58.90625 -115.625 "/></g></g></g><g fill="#ffffff" fill-opacity="1"><g transform="translate(467.361569, 349.54946)"><g><path d="M 65.5 -6.796875 C 82.539062 -6.796875 96.21875 -11.382812 106.53125 -20.5625 C 116.851562 -29.75 122.015625 -43.59375 122.015625 -62.09375 C 122.015625 -80.601562 116.1875 -95.316406 104.53125 -106.234375 C 92.882812 -117.148438 78.539062 -122.609375 61.5 -122.609375 C 49.382812 -122.609375 40.066406 -122.34375 33.546875 -121.8125 L 33.546875 -8.1875 C 41.535156 -7.257812 52.1875 -6.796875 65.5 -6.796875 Z M 61.5 -130.796875 C 81.46875 -130.796875 98.140625 -124.640625 111.515625 -112.328125 C 124.898438 -100.015625 131.59375 -83.273438 131.59375 -62.109375 C 131.59375 -40.941406 125.4375 -25.03125 113.125 -14.375 C 100.8125 -3.726562 84.9375 1.59375 65.5 1.59375 C 52.050781 1.59375 38.207031 0.925781 23.96875 -0.40625 L 23.96875 -129.59375 C 34.613281 -130.394531 47.125 -130.796875 61.5 -130.796875 Z M 61.5 -130.796875 "/></g></g></g><g fill="#ffffff" fill-opacity="1"><g transform="translate(590.972309, 349.54946)"><g><path d="M 81.265625 2 C 62.765625 2 47.253906 -4.457031 34.734375 -17.375 C 22.222656 -30.289062 15.96875 -46.097656 15.96875 -64.796875 C 15.96875 -83.503906 22.222656 -99.3125 34.734375 -112.21875 C 47.253906 -125.132812 62.765625 -131.59375 81.265625 -131.59375 C 99.773438 -131.59375 115.285156 -125.132812 127.796875 -112.21875 C 140.316406 -99.3125 146.578125 -83.503906 146.578125 -64.796875 C 146.578125 -46.097656 140.316406 -30.289062 127.796875 -17.375 C 115.285156 -4.457031 99.773438 2 81.265625 2 Z M 81.375 -123.40625 C 65.332031 -123.40625 52.019531 -117.742188 41.4375 -106.421875 C 30.851562 -95.109375 25.5625 -81.234375 25.5625 -64.796875 C 25.5625 -48.359375 30.851562 -34.515625 41.4375 -23.265625 C 52.019531 -12.015625 65.332031 -6.390625 81.375 -6.390625 C 97.414062 -6.390625 110.691406 -12.015625 121.203125 -23.265625 C 131.722656 -34.515625 136.984375 -48.359375 136.984375 -64.796875 C 136.984375 -81.234375 131.722656 -95.109375 121.203125 -106.421875 C 110.691406 -117.742188 97.414062 -123.40625 81.375 -123.40625 Z M 81.375 -123.40625 "/></g></g></g></svg>